PathFileType	4	(X/Y/Z)	Walk1_0-155.trc
DataRate	CameraRate	NumFrames	NumMarkers	Units	OrigDataRate	OrigDataStartFrame	OrigNumFrames
30	30	6	22	m	30	19	155
Frame#	Time	Hip			RHip			RKnee			RAnkle			RBigToe			RSmallToe			RHeel			LHip			LKnee			LAnkle			LBigToe			LSmallToe			LHeel			Neck			Head			Nose			RShoulder			RElbow			RWrist			LShoulder			LElbow			LWrist		
		X1	Y1	Z1	X2	Y2	Z2	X3	Y3	Z3	X4	Y4	Z4	X5	Y5	Z5	X6	Y6	Z6	X7	Y7	Z7	X8	Y8	Z8	X9	Y9	Z9	X10	Y10	Z10	X11	Y11	Z11	X12	Y12	Z12	X13	Y13	Z13	X14	Y14	Z14	X15	Y15	Z15	X16	Y16	Z16	X17	Y17	Z17	X18	Y18	Z18	X19	Y19	Z19	X20	Y20	Z20	X21	Y21	Z21	X22	Y22	Z22
20	0.6666666666666666	-2.513853748297608	0.8395251488262209	0.323042140665185	-2.4668716671851945	0.8253624817780846	0.4247895979641628	-2.312300625375187	0.5167300274262089	0.4615876403169601	-2.4722903005531407	0.1338470227195189	0.4849199722886715	-2.3340813567884453	0.014114421218111248	0.5149423691445133	-2.3572549944348467	0.01592523955965988	0.5793627208017277	-2.5632770143951094	0.05900432786453562	0.4565216170483052	-2.530313133893481	0.8044942738406425	0.23234877040800053	-2.5046498612621084	0.44832434269740323	0.24243446196531024	-2.573581649481703	0.07943596220220797	0.27311018160755507	-2.3746774531630033	-0.01412950341526315	0.2789105296558236	-2.419743797144521	-0.01839091250654501	0.21249467217272036	-2.6335082880739678	-0.0007377968263049648	0.28959657577194026	-2.492421126299755	1.5140463309412022	0.2754189988689606	-2.427425260862014	1.7744228064886138	0.263374327351529	-2.3363208762365524	1.6386170394145478	0.2848856609962673	-2.5299832457639613	1.4085857250677276	0.4625712308666862	-2.5009334854652447	1.0896743717505093	0.5564252095897566	-2.42711598586882	0.8580904905653519	0.5689353165694483	-2.5452922775144238	1.4070310665047774	0.07014871917973617	-2.5029969858640637	1.0845433223831975	0.06927572266193133	-2.457474947470753	0.8406263465834761	0.07697038379808982
21	0.7	-2.503675590713452	0.8420396138984659	0.3216326971527596	-2.4522363829035787	0.8295181041285787	0.42238083194092757	-2.287480512292949	0.5224940215542582	0.4579732237847115	-2.437955530830517	0.1384974940383898	0.47890168890311474	-2.299833325477441	0.019991318459659593	0.5027436361083057	-2.3208640210019595	0.018111217614167743	0.5690535270117576	-2.530625920686232	0.061393682733904095	0.4506716785867681	-2.523943188478509	0.8063406268267277	0.22949839790677845	-2.499630844341354	0.44912296534006146	0.24161765975476354	-2.5733701518870524	0.07960495639220476	0.272444577640565	-2.375908547350986	-0.016248010043436775	0.2792953990019552	-2.4217277492377476	-0.01989921649498653	0.21407401678648086	-2.6302943865239987	0.0003138360738442604	0.2871967835899339	-2.4827814709125717	1.5146953535926921	0.2738238975597142	-2.411910232226242	1.7741892661964225	0.2604090588617987	-2.3251583662178135	1.638950266585172	0.28363874295513053	-2.5216529909304914	1.4100476815694925	0.4608088844741969	-2.486888051446784	1.0883915407047557	0.5562819476935194	-2.4252289517059142	0.8576868517860952	0.5683282557416602	-2.5388396769515005	1.4106097771116217	0.06170237563565449	-2.49338823503295	1.0853654494579605	0.0667362453446701	-2.4479851633689846	0.8415875425832603	0.07365356305152432
22	0.7333333333333333	-2.493122324298835	0.844167006062189	0.3207109246968111	-2.4386401955982415	0.8327383020585839	0.4202176888370715	-2.269698432191098	0.5262679299045948	0.4528564515905943	-2.400481353291034	0.13914406821877415	0.47326749506641613	-2.2546929065114343	0.026897696723104308	0.4925804984450485	-2.2771222994342257	0.021196890265039195	0.560384347976173	-2.487362147641111	0.05869766973107939	0.44574370976376243	-2.5164813937498405	0.8077451089151448	0.2274733132534969	-2.494638419757646	0.4491562069447988	0.2415166761428561	-2.5730394143347417	0.07922883184560653	0.2717327291714766	-2.3776007711149587	-0.01830308979687647	0.28026899020154905	-2.423826913380084	-0.02114296841358842	0.2161885946430742	-2.626788871231712	0.0008251813920346493	0.284142631491134	-2.4721911385388244	1.5154875731659554	0.27274695044864233	-2.3963409947924665	1.7735888736768508	0.26536239787974414	-2.3137040048814996	1.63973642618181	0.28220354280755705	-2.512363724502265	1.411250973682103	0.45919010367141677	-2.471073100681354	1.0867308183822468	0.5568681853409616	-2.424091815428098	0.8562605091141774	0.5680370355029152	-2.530202259430613	1.413783423688573	0.05615804464100407	-2.482653354224789	1.0865137062396213	0.06548386483748922	-2.4363426126053866	0.8427891920916272	0.07215898617563049
23	0.7666666666666667	-2.4822582174427095	0.8455430166499502	0.3202304065598905	-2.4260210495888535	0.8345521150833619	0.4185782120098653	-2.2587424231493896	0.5279392113285629	0.44594892690240473	-2.3600984183324996	0.13612445084890995	0.468508737971498	-2.2002920503340837	0.03446062627282434	0.4850769687635963	-2.2271466868926533	0.026364835799486966	0.5539284049716122	-2.4354561150981087	0.051576852938428314	0.44144615201043036	-2.507787243130967	0.8083516882259915	0.226534576073306	-2.489833129940197	0.44809881411580627	0.24190685651033147	-2.572633698518851	0.07802269154883504	0.27121587367240246	-2.3791533012941626	-0.020212591270979685	0.2814433836928497	-2.425886145260835	-0.02231529371703525	0.21847953128620745	-2.6241050410532236	0.000568642513358629	0.28109420814213304	-2.460475307557701	1.5162341311560164	0.27216435248283344	-2.380918790528598	1.772793903578092	0.2759731388435835	-2.3019692964422447	1.6409268822753584	0.2800821223862714	-2.5020012485902203	1.4119955081863138	0.4578490704314319	-2.4560343038996653	1.0848894713039492	0.5576509050142414	-2.42359874855885	0.8537982970126169	0.5681820404810224	-2.5191668571457777	1.4161285136993693	0.05364116658343992	-2.4706167129929013	1.0876884436444556	0.06524017144933147	-2.422427379464711	0.843879426945503	0.07253939105602457
24	0.8	-2.471041876631918	0.845906716499888	0.32016064944723327	-2.4138825774471404	0.8347052967710261	0.41762710849305873	-2.252527000733495	0.5272427570729635	0.43777882751144437	-2.3171742320758093	0.13071289656361307	0.4648855462857396	-2.140111808639943	0.04277519898080476	0.47964355108444856	-2.173068150303589	0.03409694265417023	0.5487861887691524	-2.37851934192642	0.04178156576301371	0.43775845659065404	-2.497846926020167	0.8079660868293047	0.22678681750577845	-2.4852376747887277	0.4458084225595335	0.2426575224761618	-2.572163062560583	0.0758361056429725	0.27134474900891553	-2.3799485652237298	-0.02197754954506891	0.28250398744568633	-2.4279215623366843	-0.02373586022910841	0.2207229629683375	-2.6230455022872787	-0.0005587590136653488	0.27914673407026214	-2.447448848504707	1.5167750020146094	0.2721719504568125	-2.3655774866970507	1.7721668060495825	0.2878191743071463	-2.2897443342061696	1.642306799807031	0.2772147184164981	-2.490413609907598	1.4121538846335389	0.45708822376814495	-2.4437076475182407	1.0830337691252734	0.5581803011311801	-2.423573474905182	0.8505740385686034	0.5688987959690506	-2.5060183706993673	1.417523968676353	0.053429468513057285	-2.4570536699991794	1.0884951811798178	0.06564274220488363	-2.406168924464984	0.8445873499734045	0.07459762245668691
25	0.8333333333333334	-2.459374710259821	0.8451418932796559	0.32050273558502934	-2.4017741144701956	0.8332790753403239	0.4174082483623882	-2.247989615772252	0.5240322131173301	0.42943882966835417	-2.272581304211058	0.12471815968994125	0.46241158268942895	-2.0783419303684587	0.05226671889948088	0.47527901729833466	-2.1169309406291172	0.0441536758536592	0.5434658515093447	-2.32087979447295	0.03170926545432282	0.43501803875436285	-2.486785039005285	0.8066910093410065	0.22805212560254873	-2.4806829102722063	0.44249541273720455	0.2437499646404424	-2.571703727991069	0.0728110302785272	0.2725163216246101	-2.3797176457057714	-0.02363716263715234	0.28348379407817875	-2.4303684968020076	-0.025612789340577986	0.22304174573144023	-2.624303321146229	-0.002487651636992619	0.2793660429933965	-2.4330241112148214	1.5169413353332988	0.2728573496123884	-2.3501788708713325	1.7719159518569134	0.2973840159573983	-2.276726052570775	1.6435209240133737	0.2741110497226046	-2.477451343795523	1.411727770797548	0.45717717212241105	-2.4344299538916094	1.0812590776406743	0.5582874958334688	-2.4236449295687037	0.846992151564198	0.570286771623883	-2.4912233961542873	1.4180722843244948	0.05469534060783825	-2.4417677619046363	1.0886257141517004	0.06649432992103867	-2.3876628054559297	0.8447563694121732	0.07785795722171453
